<svg width="30" height="30" viewBox="0 0 30 30" fill="none" xmlns="http://www.w3.org/2000/svg">
<g clip-path="url(#clip0_311_2502)">
<path fill-rule="evenodd" clip-rule="evenodd" d="M2.1875 1.25C1.60734 1.25 1.05094 1.48047 0.640704 1.8907C0.230468 2.30094 0 2.85734 0 3.4375L0 15.3125C0 16.52 0.98 17.5 2.1875 17.5H3.75V19.4288C3.75013 19.7889 3.85701 20.1409 4.05714 20.4403C4.25727 20.7396 4.54166 20.973 4.87437 21.1108C5.20709 21.2486 5.57318 21.2846 5.92638 21.2144C6.27959 21.1442 6.60405 20.9708 6.85875 20.7162L10.0763 17.5H17.8125C18.3927 17.5 18.9491 17.2695 19.3593 16.8593C19.7695 16.4491 20 15.8927 20 15.3125V3.4375C20 2.85734 19.7695 2.30094 19.3593 1.8907C18.9491 1.48047 18.3927 1.25 17.8125 1.25H2.1875ZM1.875 3.4375C1.875 3.35462 1.90792 3.27513 1.96653 3.21653C2.02513 3.15792 2.10462 3.125 2.1875 3.125H17.8125C17.8954 3.125 17.9749 3.15792 18.0335 3.21653C18.0921 3.27513 18.125 3.35462 18.125 3.4375V15.3125C18.125 15.3954 18.0921 15.4749 18.0335 15.5335C17.9749 15.5921 17.8954 15.625 17.8125 15.625H9.6875C9.43894 15.6252 9.20065 15.7241 9.025 15.9L5.625 19.3V16.5625C5.625 16.3139 5.52623 16.0754 5.35041 15.8996C5.1746 15.7238 4.93614 15.625 4.6875 15.625H2.1875C2.10462 15.625 2.02513 15.5921 1.96653 15.5335C1.90792 15.4749 1.875 15.3954 1.875 15.3125V3.4375Z" fill="white"/>
<path d="M28.125 10.9375C28.125 10.8546 28.0921 10.7751 28.0335 10.7165C27.9749 10.6579 27.8954 10.625 27.8125 10.625H23.4375C23.1889 10.625 22.9504 10.5262 22.7746 10.3504C22.5988 10.1746 22.5 9.93614 22.5 9.6875C22.5 9.43886 22.5988 9.2004 22.7746 9.02459C22.9504 8.84877 23.1889 8.75 23.4375 8.75H27.8125C29.02 8.75 30 9.73 30 10.9375V22.8125C30 23.3927 29.7695 23.9491 29.3593 24.3593C28.9491 24.7695 28.3927 25 27.8125 25H26.25V26.9287C26.2499 27.2889 26.143 27.6409 25.9429 27.9403C25.7427 28.2396 25.4583 28.473 25.1256 28.6108C24.7929 28.7486 24.4268 28.7846 24.0736 28.7144C23.7204 28.6442 23.396 28.4708 23.1413 28.2162L19.9237 25H13.4375C12.8573 25 12.3009 24.7695 11.8907 24.3593C11.4805 23.9491 11.25 23.3927 11.25 22.8125V20.9812C11.25 20.7326 11.3488 20.4942 11.5246 20.3183C11.7004 20.1425 11.9389 20.0437 12.1875 20.0437C12.4361 20.0437 12.6746 20.1425 12.8504 20.3183C13.0262 20.4942 13.125 20.7326 13.125 20.9812V22.8125C13.125 22.985 13.265 23.125 13.4375 23.125H20.3125C20.5611 23.1252 20.7994 23.2241 20.975 23.4L24.375 26.8V24.0625C24.375 23.8139 24.4738 23.5754 24.6496 23.3996C24.8254 23.2238 25.0639 23.125 25.3125 23.125H27.8125C27.8954 23.125 27.9749 23.0921 28.0335 23.0335C28.0921 22.9749 28.125 22.8954 28.125 22.8125V10.9375Z" fill="white"/>
</g>
<defs>
<clipPath id="clip0_311_2502">
<rect width="30" height="30" fill="white"/>
</clipPath>
</defs>
</svg>
