<svg width="51" height="50" viewBox="0 0 51 50" fill="none" xmlns="http://www.w3.org/2000/svg">
<rect width="50" height="50" transform="translate(0.5)" fill="#3B5999"/>
<path d="M30.2493 15.0042L27.6558 15C24.742 15 22.859 16.9319 22.859 19.922V22.1914H20.2513C20.026 22.1914 19.8435 22.3741 19.8435 22.5994V25.8875C19.8435 26.1128 20.0262 26.2953 20.2513 26.2953H22.859V34.5922C22.859 34.8175 23.0415 35 23.2668 35H26.6691C26.8945 35 27.0769 34.8173 27.0769 34.5922V26.2953H30.126C30.3513 26.2953 30.5338 26.1128 30.5338 25.8875L30.535 22.5994C30.535 22.4912 30.4919 22.3876 30.4156 22.311C30.3392 22.2345 30.2352 22.1914 30.127 22.1914H27.0769V20.2676C27.0769 19.343 27.2973 18.8736 28.5018 18.8736L30.2489 18.873C30.4741 18.873 30.6565 18.6903 30.6565 18.4651V15.412C30.6565 15.1871 30.4743 15.0046 30.2493 15.0042Z" fill="white"/>
</svg>
