<svg width="51" height="50" viewBox="0 0 51 50" fill="none" xmlns="http://www.w3.org/2000/svg">
<rect width="50" height="50" transform="translate(0.5)" fill="#DD4B39"/>
<path d="M22.7857 23.3454C26.8358 23.3454 29.2583 23.3454 30.0532 23.3454C30.3182 24.7459 30.2614 26.1085 29.8829 27.4334C29.5044 28.7203 28.842 29.7991 27.8957 30.6697C27.0251 31.4646 25.9652 32.0134 24.7161 32.3162C23.3534 32.6191 22.0286 32.6001 20.7417 32.2595C19.7197 31.9945 18.7923 31.5214 17.9595 30.84C17.0511 30.1208 16.3508 29.2692 15.8588 28.285C15.026 26.6952 14.7989 25.0108 15.1774 23.2318C15.291 22.5505 15.5181 21.907 15.8588 21.3014C16.7672 19.4088 18.2245 18.1218 20.2307 17.4405C21.9718 16.8348 23.713 16.8538 25.4542 17.4972C26.3627 17.8379 27.1954 18.3489 27.9524 19.0302C27.8767 19.1438 27.7443 19.2952 27.555 19.4845C27.3657 19.6359 27.2522 19.7494 27.2143 19.8251C27.0629 19.9387 26.8169 20.1658 26.4762 20.5065C26.1734 20.8093 25.9463 21.0553 25.7949 21.2446C25.3028 20.7525 24.735 20.4118 24.0915 20.2226C23.3345 19.9955 22.5775 19.9765 21.8204 20.1658C20.912 20.3551 20.136 20.7714 19.4925 21.4149C19.0005 21.9448 18.622 22.5694 18.357 23.2886C18.0163 24.2727 18.0163 25.2758 18.357 26.2978C18.6977 27.2819 19.3033 28.0768 20.1739 28.6825C20.7038 29.061 21.2716 29.307 21.8772 29.4206C22.445 29.5341 23.0695 29.5341 23.7509 29.4206C24.3944 29.307 24.9621 29.0799 25.4542 28.7392C26.3248 28.1715 26.8358 27.3766 26.9872 26.3546C25.5867 26.3546 24.1862 26.3546 22.7857 26.3546C22.7857 26.1275 22.7857 25.6354 22.7857 24.8784C22.7857 24.0835 22.7857 23.5725 22.7857 23.3454ZM39.2512 23.5157V25.4461H36.5827V28.0579H34.6522V25.4461H31.9837V23.5157H34.6522V20.8471H36.5827V23.5157H39.2512Z" fill="white"/>
</svg>
