<svg width="20" height="20" viewBox="0 0 20 20" fill="none" xmlns="http://www.w3.org/2000/svg">
<path d="M13.3333 2.5H0.833313V13.3333H13.3333V2.5Z" stroke="#222222" stroke-width="1.35" stroke-linecap="round" stroke-linejoin="round"/>
<path d="M13.3333 6.66675H16.6666L19.1666 9.16675V13.3334H13.3333V6.66675Z" stroke="#222222" stroke-width="1.35" stroke-linecap="round" stroke-linejoin="round"/>
<path d="M4.58333 17.4999C5.73393 17.4999 6.66667 16.5672 6.66667 15.4166C6.66667 14.266 5.73393 13.3333 4.58333 13.3333C3.43274 13.3333 2.5 14.266 2.5 15.4166C2.5 16.5672 3.43274 17.4999 4.58333 17.4999Z" stroke="#222222" stroke-width="1.35" stroke-linecap="round" stroke-linejoin="round"/>
<path d="M15.4166 17.4999C16.5672 17.4999 17.5 16.5672 17.5 15.4166C17.5 14.266 16.5672 13.3333 15.4166 13.3333C14.2661 13.3333 13.3333 14.266 13.3333 15.4166C13.3333 16.5672 14.2661 17.4999 15.4166 17.4999Z" stroke="#222222" stroke-width="1.35" stroke-linecap="round" stroke-linejoin="round"/>
</svg>
