<svg width="51" height="50" viewBox="0 0 51 50" fill="none" xmlns="http://www.w3.org/2000/svg">
<rect width="50" height="50" transform="translate(0.5)" fill="#55ACEE"/>
<g clip-path="url(#clip0_16_272)">
<path d="M35.1052 18.5226C34.7821 18.6659 34.4498 18.7869 34.1103 18.8851C34.5123 18.4305 34.8187 17.8957 35.0058 17.3104C35.0477 17.1792 35.0043 17.0356 34.8964 16.9498C34.7887 16.8639 34.6391 16.8536 34.5205 16.9239C33.7995 17.3515 33.0216 17.6588 32.206 17.8385C31.3844 17.0357 30.2685 16.5788 29.1149 16.5788C26.6799 16.5788 24.6988 18.5598 24.6988 20.9948C24.6988 21.1866 24.7109 21.3773 24.7349 21.5654C21.7133 21.3001 18.9041 19.8149 16.975 17.4486C16.9063 17.3642 16.8003 17.3188 16.6919 17.3275C16.5834 17.336 16.4859 17.3972 16.4311 17.4912C16.0399 18.1626 15.833 18.9304 15.833 19.7116C15.833 20.7757 16.2129 21.7853 16.884 22.5742C16.68 22.5035 16.482 22.4152 16.293 22.3103C16.1915 22.2538 16.0677 22.2547 15.9669 22.3125C15.866 22.3703 15.8028 22.4766 15.8001 22.5928C15.7996 22.6124 15.7996 22.6319 15.7996 22.6518C15.7996 24.2401 16.6545 25.6701 17.9614 26.4495C17.8492 26.4382 17.7369 26.422 17.6255 26.4007C17.5105 26.3787 17.3923 26.419 17.3148 26.5067C17.2372 26.5943 17.2115 26.7164 17.2473 26.8278C17.731 28.3382 18.9765 29.4491 20.4822 29.7878C19.2334 30.57 17.8053 30.9797 16.3061 30.9797C15.9933 30.9797 15.6787 30.9613 15.3708 30.9249C15.2178 30.9067 15.0715 30.997 15.0195 31.1425C14.9674 31.288 15.0226 31.4502 15.1527 31.5336C17.0787 32.7685 19.3056 33.4212 21.5927 33.4212C26.0888 33.4212 28.9014 31.3011 30.4692 29.5224C32.4241 27.3046 33.5453 24.3691 33.5453 21.4686C33.5453 21.3474 33.5435 21.225 33.5398 21.1031C34.3111 20.522 34.9751 19.8187 35.5155 19.0104C35.5976 18.8876 35.5887 18.7253 35.4936 18.6123C35.3986 18.4993 35.2404 18.4627 35.1052 18.5226Z" fill="white"/>
</g>
<defs>
<clipPath id="clip0_16_272">
<rect width="20.5715" height="18" fill="white" transform="translate(15 16)"/>
</clipPath>
</defs>
</svg>
