<svg width="101" height="87" viewBox="0 0 101 87" fill="none" xmlns="http://www.w3.org/2000/svg">
<path opacity="0.2" fill-rule="evenodd" clip-rule="evenodd" d="M18.9681 32.3798C16.3093 34.3807 13.7046 36.3739 11.1486 38.4362C8.19842 40.8167 3.88413 40.346 1.5124 37.385C-0.859339 34.4239 -0.390395 30.0938 2.55981 27.7133C6.48282 24.548 10.5536 21.5074 14.5034 18.5572C15.5201 17.7978 16.5287 17.0445 17.5248 16.2965C22.4574 12.5924 27.1688 8.95733 31.5443 5.0537C33.1469 3.62396 34.9794 2.23877 36.7694 1.08895L36.7771 1.08401C37.1434 0.848559 39.2139 -0.482192 42.0396 0.185666C45.6665 1.04286 46.8341 4.09502 47.1104 5.17667C47.3944 6.28882 47.3236 7.19562 47.302 7.45785C47.2704 7.84241 47.2128 8.14584 47.1789 8.30861C47.0714 8.82615 46.9186 9.24521 46.8898 9.32422C46.8885 9.32792 46.8874 9.33087 46.8866 9.33306C46.7885 9.60499 46.6751 9.87589 46.6013 10.0496C46.4316 10.449 46.1959 10.9767 45.9348 11.5516C45.4037 12.7212 44.6732 14.2936 43.9217 15.9006C43.1445 17.5627 42.3528 19.245 41.708 20.6153C41.0801 21.9498 40.5914 22.9883 40.3909 23.424C37.5533 29.5902 33.7714 35.0825 30.3863 39.9987C29.9944 40.5679 29.6078 41.1294 29.2285 41.6833C28.9991 42.0184 28.7718 42.3515 28.5469 42.6826C30.2886 41.2408 31.9937 39.6335 33.7357 37.8453C38.6888 32.7611 44.6076 29.1493 49.8185 26.049C54.3305 20.4468 59.7016 15.3583 65.7642 11.6918C66.4723 11.2635 67.2272 10.8528 67.9995 10.5294C68.6476 10.2581 69.8913 9.79229 71.4114 9.78276C73.1752 9.77169 76.2389 10.4843 77.8916 13.6315C79.1432 16.0147 78.6652 18.254 78.5029 18.9286C78.1047 20.5844 77.2282 21.9628 76.7582 22.6542C76.5257 22.9961 76.2734 23.3401 76.0072 23.6773C76.3492 23.5947 76.8359 23.5053 77.4069 23.4869C77.8853 23.4715 81.618 23.3882 83.6284 27.0318C85.322 30.1013 84.023 32.8921 83.8743 33.2114C83.8706 33.2194 83.8676 33.2259 83.8654 33.2307C83.5365 33.9529 83.1563 34.4489 83.0299 34.6118C82.8552 34.8366 82.7005 35.0072 82.6096 35.1043C82.3154 35.4191 82.0327 35.6609 81.9561 35.7263L81.949 35.7324C81.5623 36.0636 80.9635 36.5223 80.4951 36.8786C79.9854 37.2665 79.4662 37.6568 78.9882 38.0161C78.9156 38.0708 78.8438 38.1247 78.7732 38.1778C77.644 39.3953 76.5427 41.0073 75.0767 43.1532C74.715 43.6827 74.3311 44.2446 73.9191 44.8411C72.0722 47.5154 70.3987 50.3683 68.7826 53.3795C71.7543 51.4884 74.607 49.6592 77.4985 47.6227C79.2017 46.4231 81.0886 45.2921 82.707 44.322C83.0043 44.1438 83.2926 43.9711 83.569 43.8043C84.708 42.795 85.8824 41.7931 87.0972 40.7955C87.6931 40.3061 89.0746 39.3788 89.9404 38.8625C90.1768 38.7215 90.5529 38.503 90.9642 38.3068C91.1386 38.2236 91.5648 38.0245 92.1118 37.8619C92.37 37.7851 92.9308 37.6314 93.6568 37.5833C94.1654 37.5496 96.0633 37.4551 97.9773 38.7537C100.537 40.4904 101.118 43.2153 100.982 45.0009C100.873 46.4189 100.352 47.43 100.181 47.7514C99.779 48.509 99.3127 49.0408 99.1791 49.1932L99.1748 49.198C98.802 49.6234 98.3835 50.0154 98.0707 50.2998C96.0099 52.1744 93.7631 53.6678 91.7628 54.9054C85.2778 60.7825 80.0162 67.0325 74.5742 74.6792C72.3741 77.7708 68.0934 78.4869 65.0131 76.2786C64.0978 75.6224 63.3914 74.7817 62.9084 73.8431C60.1917 75.8751 57.6766 77.9864 55.4069 80.2852C55.396 80.3018 55.3844 80.3195 55.3721 80.3382C55.1873 80.6206 54.9683 80.9716 54.7175 81.3738L54.6798 81.4343C54.4803 81.7543 54.1928 82.2154 53.9643 82.549C53.8976 82.6464 53.7793 82.8165 53.6327 83.0051C53.5604 83.0981 53.4335 83.2576 53.2665 83.4419L53.2645 83.4441C53.1568 83.563 52.7583 84.0027 52.151 84.4373C51.8661 84.6411 51.1607 85.12 50.1335 85.4292C49.0824 85.7456 46.8633 86.1028 44.5929 84.7145C42.4012 83.3744 41.7026 81.338 41.4858 80.4182C41.2597 79.4587 41.2948 78.6767 41.3181 78.3438C41.3675 77.6357 41.5181 77.0935 41.5608 76.94C41.6259 76.7057 41.6915 76.5158 41.7323 76.4019C42.5895 74.012 43.8863 71.5955 45.0074 69.612C44.9157 69.683 44.8239 69.7539 44.7319 69.8246C42.666 71.4118 40.0821 73.1256 37.7265 74.688C36.4507 75.5342 35.2419 76.3359 34.2185 77.0492C30.87 79.383 28.3349 81.4952 26.6832 83.7381C26.6787 83.7443 26.6724 83.7529 26.6645 83.7638C26.5429 83.9312 26.0312 84.6354 25.392 85.2115C25.3884 85.2148 25.3837 85.219 25.378 85.2242C25.2341 85.3554 24.4438 86.0762 23.2242 86.5441C22.5748 86.7933 20.9267 87.3164 18.8946 86.7374C16.4658 86.0455 15.0498 84.2583 14.4248 82.7392C13.9029 81.4706 13.8957 80.3738 13.9061 79.9364C13.9188 79.4042 13.9905 78.9817 14.0368 78.7467C14.1294 78.2761 14.252 77.9119 14.3058 77.7568C14.5583 77.0298 15.043 76.1018 15.2362 75.7321C15.2531 75.6996 15.2679 75.6714 15.28 75.648C15.3764 75.4622 15.4703 75.282 15.5619 75.1065C15.7746 74.6987 15.9743 74.3158 16.1608 73.9452C16.3145 73.6397 16.3928 73.4708 16.4229 73.4067C17.8554 68.888 20.3715 65.5429 22.808 62.8747C23.2676 62.3714 23.7374 61.8787 24.204 61.4014C23.9366 61.518 23.667 61.633 23.3951 61.7464C23.3951 61.7464 23.3586 61.762 23.2371 61.8156C23.2056 61.8295 23.163 61.8483 23.1146 61.8698C23.0267 61.9087 22.9193 61.9562 22.823 61.9986C22.4912 62.1448 22.0582 62.333 21.5709 62.5328C20.6475 62.9113 19.3195 63.419 17.9511 63.7583C17.2682 63.9277 16.3825 64.1047 15.4151 64.1538C14.5541 64.1976 12.9602 64.1824 11.2745 63.4087C9.21903 62.4654 7.50634 60.5898 6.95059 58.0267C6.49531 55.927 6.98564 54.11 7.36092 53.0637C10.0078 45.6843 14.1324 39.4397 17.9307 33.8916C18.2799 33.3815 18.6258 32.878 18.9681 32.3798ZM59.0301 36.5641C58.5108 37.258 58.0042 37.9628 57.5113 38.6762C58.5536 37.6366 59.6163 36.5961 60.7028 35.5628C60.1388 35.9031 59.5806 36.2365 59.0301 36.5641ZM15.5481 75.7058C15.5492 75.703 15.5732 75.671 15.6168 75.6179C15.5688 75.6819 15.547 75.7085 15.5481 75.7058ZM55.5508 80.0749C55.5508 80.0749 55.5439 80.0849 55.5313 80.1017C55.5446 80.0828 55.5508 80.0749 55.5508 80.0749ZM65.5345 14.7392C65.5345 14.7392 65.5231 14.7642 65.49 14.8163C65.5162 14.7657 65.5345 14.7392 65.5345 14.7392ZM20.2687 57.6957C20.2653 57.7051 20.2619 57.7145 20.2586 57.7239L20.2599 57.7203C20.2616 57.7155 20.2647 57.7072 20.2687 57.6957Z" fill="#D05278"/>
</svg>
